# xmcd
#
# Track frame offsets:
#	150
#	14920
#	25892
#	45923
#	63632
#	81337
#	91753
#	109586
#	122866
#	140856
#	159525
#	175450
#	198670
#	212107
#	228705
#	246353
#	258446
#	273200
#	298978
#
# Disc length: 4213 seconds
#
# Revision: 1
# Processed by: cddbd v1.5.2PL0 Copyright (c) Steve Scherf et al.
# Submitted via: audiograbber 1.83.01
#
DISCID=28107313
DTITLE=div - De Zwarte Lijst vol1 [CD1)
DYEAR=2012
DGENRE=Soul
TTITLE0=Al Green - Let's Stay Together 
TTITLE1=Dusty Springfield - Son Of A Preacher Man 
TTITLE2=D'Angelo - Brown Sugar 
TTITLE3=Wouter Hamel - Demise (Radio Edit) 
TTITLE4=Roy Ayers Ubiquity - Everybody Loves The Sunshine (9th Wonder Remix) 
TTITLE5=Chet Baker, Russ Freeman - My Funny Valentine 
TTITLE6=John Legend - Save Room 
TTITLE7=Jackie Wilson - (I Get The) Sweetest Feeling 
TTITLE8=Average White Band - Pick Up The Pieces 
TTITLE9=India.Arie - Video (Radio Edit) 
TTITLE10=Ruben Hein - Elephants 
TTITLE11=Cannonball Adderley - Mercy, Mercy, Mercy 
TTITLE12=Ben L'Oncle Soul - Seven Nation Army 
TTITLE13=Us3 - Cantaloop (Flip Fantasia) 
TTITLE14=Tom Browne - Funkin' For Jamaica 
TTITLE15=Amos Lee - Colors 
TTITLE16=Aïrto - Mystery 
TTITLE17=Marcus Miller - Blast (Album Version) 
TTITLE18=Erykah Badu - Tyrone (Extended Version) 
EXTD=
EXTT0=
EXTT1=
EXTT2=
EXTT3=
EXTT4=
EXTT5=
EXTT6=
EXTT7=
EXTT8=
EXTT9=
EXTT10=
EXTT11=
EXTT12=
EXTT13=
EXTT14=
EXTT15=
EXTT16=
EXTT17=
EXTT18=
PLAYORDER=
